<?xml version="1.0" encoding="UTF-8" standalone="no"?>
<!-- Created with Inkscape (http://www.inkscape.org/) -->

<svg
   width="16.933332mm"
   height="16.933332mm"
   viewBox="0 0 16.933332 16.933332"
   version="1.1"
   id="svg1"
   xml:space="preserve"
   inkscape:export-filename="stackmagicqcue.png"
   inkscape:export-xdpi="96"
   inkscape:export-ydpi="96"
   inkscape:version="1.3.2 (1:1.3.2+202311252150+091e20ef0f)"
   sodipodi:docname="stackmagicqcue.svg"
   xmlns:inkscape="http://www.inkscape.org/namespaces/inkscape"
   xmlns:sodipodi="http://sodipodi.sourceforge.net/DTD/sodipodi-0.dtd"
   xmlns="http://www.w3.org/2000/svg"
   xmlns:svg="http://www.w3.org/2000/svg"><sodipodi:namedview
     id="namedview1"
     pagecolor="#ffffff"
     bordercolor="#666666"
     borderopacity="1.0"
     inkscape:showpageshadow="2"
     inkscape:pageopacity="0.0"
     inkscape:pagecheckerboard="0"
     inkscape:deskcolor="#d1d1d1"
     inkscape:document-units="mm"
     inkscape:zoom="7.0849723"
     inkscape:cx="-27.170184"
     inkscape:cy="73.394783"
     inkscape:window-width="2522"
     inkscape:window-height="1376"
     inkscape:window-x="38"
     inkscape:window-y="27"
     inkscape:window-maximized="1"
     inkscape:current-layer="layer1" /><defs
     id="defs1" /><g
     inkscape:label="Layer 1"
     inkscape:groupmode="layer"
     id="layer1"
     transform="translate(-39.981789,-164.66415)"><path
       id="path1"
       style="fill:#f9f9f9;fill-opacity:1;stroke:#b3b3b3;stroke-width:0.5;stroke-linecap:round;stroke-linejoin:round;stroke-dasharray:none;stroke-opacity:1;paint-order:stroke fill markers"
       d="m 48.448143,166.67025 c -3.568178,0 -6.460798,2.89261 -6.460799,6.46077 10e-7,3.56818 2.892621,6.46079 6.460799,6.46079 1.887214,0 6.461421,-0.007 6.461421,-0.007 0,0 -6.01e-4,-4.7733 -6.01e-4,-6.45427 0,-3.56816 -2.892621,-6.46078 -6.460802,-6.46078 z m -0.07116,1.85858 c 2.458773,9e-5 4.451925,1.96695 4.451805,4.39307 -0.0036,1.77563 -0.817958,3.03264 -2.542245,4.02823 0.122834,0.11848 0.420299,0.25517 0.704467,0.27845 0.660275,0.0362 1.041426,-0.0811 1.54008,-0.5463 l 0.880972,1.12304 c -0.80058,0.76063 -1.868621,1.08662 -2.910792,0.88842 -0.839162,-0.16175 -1.596974,-0.65174 -2.133921,-1.37972 -2.454755,-0.006 -4.442081,-1.96995 -4.442477,-4.39212 -1.2e-4,-2.42624 1.993224,-4.39314 4.452111,-4.39307 z m 0.01739,1.63579 c -1.413829,0 -2.559959,1.2271 -2.559956,2.7408 -3e-6,1.5137 1.146127,2.7408 2.559956,2.74081 1.413829,0 2.55996,-1.22711 2.55996,-2.74081 0,-1.5137 -1.146131,-2.7408 -2.55996,-2.7408 z" /></g></svg>
